<?xml version="1.0" encoding="UTF-8"?>
<svg xmlns="http://www.w3.org/2000/svg" viewBox="0 0 216 216">
  <defs>
    <style>
      .cls-1 {
        fill: #df6c26;
      }

      .cls-1, .cls-2 {
        stroke-width: 0px;
      }

      .cls-2 {
        fill: #fff;
      }
    </style>
  </defs>
  <g id="Layer_2" data-name="Layer 2">
    <rect class="cls-1" width="216" height="216"/>
  </g>
  <g id="Layer_1" data-name="Layer 1">
    <path class="cls-2" d="M11,65.6l1.6,105.9s40.6,18.9,94.8,17c0,0,62-.6,97.6-16.7l-1.3-106.3H11Z"/>
    <ellipse class="cls-2" cx="107.4" cy="65.6" rx="96.3" ry="38.3"/>
    <ellipse class="cls-1" cx="107.5" cy="66.8" rx="86.1" ry="30.4"/>
    <ellipse class="cls-2" cx="108" cy="70.6" rx="80.9" ry="29.4"/>
    <ellipse class="cls-1" cx="108" cy="74.5" rx="72.1" ry="25.4"/>
    <ellipse class="cls-2" cx="110" cy="78.2" rx="65.7" ry="23.8"/>
    <ellipse class="cls-1" cx="109.3" cy="80.1" rx="57.6" ry="18.1"/>
    <path class="cls-1" d="M15.6,77.2v5.2s28.2,23.6,91.8,23.9c63.6.3,92.6-23.9,92.6-23.9v-5.2s-27.4,28.2-97.9,26c-70.5-2.2-86.4-26-86.4-26Z"/>
    <path class="cls-1" d="M28.3,164s13.2,4.1,13.2,4.1v-22.1c0-9.7,3-26.4-3.4-34.3-1.2-1.5-3.3-2.8-5-1.8-.8.4-1.2,1.2-1.6,2-4.8,9.2-3.2,21.1-3.2,31.2s-1,20.7,0,21Z"/>
    <path class="cls-1" d="M188.9,163.9s-13.2,4.2-13.2,4.2c0-8.6,0-17.2,0-25.7,0-8.8-2.9-26.6,4.4-33,.9-.8,2-1.4,3.1-1.2,1.3.3,2.1,1.5,2.6,2.6,4.7,9.3,3,21.3,3,31.4,0,1.6,1,21.3,0,21.7Z"/>
    <path class="cls-1" d="M144.5,172.8s13.5-1.3,13.5-1.3v-20.8c0-9.6,2.1-22.8-3-31.3-2-3.3-4.9-3.2-6.9,0-5.7,8.9-3.8,19.9-3.7,29.9,0,7.8,0,15.6.1,23.4Z"/>
    <path class="cls-1" d="M71,172.8s-13.5-1.3-13.5-1.3c0-7.7,0-15.3,0-23,0-9.1-2-21.5,3.3-29.5.7-1.1,1.7-2.2,3-2.3,1.4,0,2.5,1.1,3.3,2.2,6.2,8.6,4.1,22,4.1,32.2s-.4,21.6-.1,21.6Z"/>
    <path class="cls-1" d="M116.5,175h13.2v-41.9c0-2.9-.3-6.4-1.5-9-.9-2-2.8-3.7-5-3.8-2.3,0-4.4,1.7-5.4,3.8-1.2,2.6-1.4,5.9-1.4,8.7v42.2Z"/>
    <path class="cls-1" d="M99.4,175h-13.2s0-41.3,0-41.9c0-2.9.3-6.4,1.5-9,.9-2,2.8-3.7,5-3.8,2.3,0,4.4,1.7,5.4,3.8,1.2,2.6,1.4,5.9,1.4,8.7v42.2Z"/>
    <path class="cls-1" d="M15.6,164.3v5.2s34.6,14.2,92.4,15.3c0,0,41.7,2.1,93-15.8v-4.7s-39.2,15.6-92.7,14.6c0,0-41.7,3.5-92.7-14.6Z"/>
  </g>
</svg>