<svg width="216" height="216" viewBox="0 0 216 216" fill="none" xmlns="http://www.w3.org/2000/svg">
<rect width="216" height="216" fill="black"/>
<mask id="path-2-inside-1_174_7" fill="white">
<path fill-rule="evenodd" clip-rule="evenodd" d="M67.8689 95.3397C68.2296 94.8868 68.8143 94.8868 69.175 95.3397L78.0411 106.473C78.4018 106.926 78.4018 107.661 78.0411 108.114C77.6805 108.566 77.0957 108.566 76.735 108.114L68.5219 97.7999L51.4427 119.247C51.0821 119.7 50.4973 119.7 50.1366 119.247L41.2705 108.114C40.9098 107.661 40.9098 106.926 41.2705 106.473C41.6312 106.02 42.2159 106.02 42.5766 106.473L50.7897 116.787L67.8689 95.3397Z"/>
<path fill-rule="evenodd" clip-rule="evenodd" d="M41.4795 95.6021C41.7247 95.2941 42.1224 95.2941 42.3676 95.6021L50.7897 106.178L59.2117 95.6021C59.457 95.2941 59.8546 95.2941 60.0999 95.6021C60.3452 95.9101 60.3452 96.4094 60.0999 96.7174L51.2338 107.851C50.9885 108.159 50.5909 108.159 50.3456 107.851L41.4795 96.7174C41.2342 96.4094 41.2342 95.9101 41.4795 95.6021Z"/>
<path fill-rule="evenodd" clip-rule="evenodd" d="M77.8322 118.985C77.5869 119.293 77.1893 119.293 76.944 118.985L68.522 108.409L60.0999 118.985C59.8546 119.293 59.457 119.293 59.2117 118.985C58.9665 118.677 58.9665 118.178 59.2117 117.87L68.0779 106.736C68.3231 106.428 68.7208 106.428 68.966 106.736L77.8322 117.87C78.0774 118.178 78.0774 118.677 77.8322 118.985Z"/>
<path d="M104.047 96.2195C106.745 96.2195 108.697 96.8539 109.902 98.1225C111.108 99.3617 111.71 101.117 111.71 103.389C111.71 105.543 111.122 107.21 109.945 108.39C108.768 109.541 106.788 110.116 104.004 110.116H93.198V111.798C93.198 112.742 93.4563 113.524 93.973 114.143C94.5183 114.733 95.4224 115.029 96.6852 115.029H110.591V119.587H96.6852C95.2502 119.587 94.0304 119.395 93.0258 119.012C92.05 118.628 91.232 118.097 90.5719 117.418C89.9404 116.71 89.4812 115.899 89.1942 114.984C88.9072 114.04 88.7637 113.007 88.7637 111.886V103.92C88.7637 102.828 88.9072 101.811 89.1942 100.866C89.4812 99.9223 89.9404 99.1109 90.5719 98.4323C91.232 97.7242 92.05 97.1784 93.0258 96.7948C94.0304 96.4113 95.2502 96.2195 96.6852 96.2195H104.047ZM93.198 106.443H103.875C105.109 106.443 105.97 106.192 106.458 105.69C106.975 105.189 107.233 104.51 107.233 103.655C107.233 102.769 106.975 102.061 106.458 101.53C105.941 100.999 105.123 100.734 104.004 100.734H96.6852C95.4224 100.734 94.5183 101.043 93.973 101.663C93.4563 102.283 93.198 103.05 93.198 103.964V106.443Z"/>
<path d="M119.039 96.3523L125.904 115.043C126.104 115.571 126.473 115.835 127.009 115.835C127.522 115.835 127.89 115.571 128.114 115.043L135.313 96.3523H139.699L131.73 117.005C131.306 118.107 130.703 118.887 129.922 119.346C129.163 119.782 128.192 120 127.009 120C125.892 120 124.921 119.793 124.095 119.38C123.292 118.944 122.678 118.153 122.254 117.005L114.686 96.3523H119.039Z"/>
<path d="M147.005 96.3523V119.587H143.054V96.3523H147.005Z"/>
<path d="M154.715 119.587H150.362L158.298 98.9339C158.722 97.8324 159.313 97.0637 160.072 96.6277C160.854 96.1687 161.847 95.9392 163.053 95.9392C164.236 95.9392 165.207 96.1687 165.966 96.6277C166.747 97.0637 167.339 97.8324 167.74 98.9339L175.375 119.587H170.989L164.124 100.896C163.923 100.368 163.555 100.104 163.019 100.104C162.483 100.104 162.104 100.368 161.881 100.896L154.715 119.587Z"/>
</mask>
<path fill-rule="evenodd" clip-rule="evenodd" d="M67.8689 95.3397C68.2296 94.8868 68.8143 94.8868 69.175 95.3397L78.0411 106.473C78.4018 106.926 78.4018 107.661 78.0411 108.114C77.6805 108.566 77.0957 108.566 76.735 108.114L68.5219 97.7999L51.4427 119.247C51.0821 119.7 50.4973 119.7 50.1366 119.247L41.2705 108.114C40.9098 107.661 40.9098 106.926 41.2705 106.473C41.6312 106.02 42.2159 106.02 42.5766 106.473L50.7897 116.787L67.8689 95.3397Z" fill="white"/>
<path fill-rule="evenodd" clip-rule="evenodd" d="M41.4795 95.6021C41.7247 95.2941 42.1224 95.2941 42.3676 95.6021L50.7897 106.178L59.2117 95.6021C59.457 95.2941 59.8546 95.2941 60.0999 95.6021C60.3452 95.9101 60.3452 96.4094 60.0999 96.7174L51.2338 107.851C50.9885 108.159 50.5909 108.159 50.3456 107.851L41.4795 96.7174C41.2342 96.4094 41.2342 95.9101 41.4795 95.6021Z" fill="white"/>
<path fill-rule="evenodd" clip-rule="evenodd" d="M77.8322 118.985C77.5869 119.293 77.1893 119.293 76.944 118.985L68.522 108.409L60.0999 118.985C59.8546 119.293 59.457 119.293 59.2117 118.985C58.9665 118.677 58.9665 118.178 59.2117 117.87L68.0779 106.736C68.3231 106.428 68.7208 106.428 68.966 106.736L77.8322 117.87C78.0774 118.178 78.0774 118.677 77.8322 118.985Z" fill="white"/>
<path d="M104.047 96.2195C106.745 96.2195 108.697 96.8539 109.902 98.1225C111.108 99.3617 111.71 101.117 111.71 103.389C111.71 105.543 111.122 107.21 109.945 108.39C108.768 109.541 106.788 110.116 104.004 110.116H93.198V111.798C93.198 112.742 93.4563 113.524 93.973 114.143C94.5183 114.733 95.4224 115.029 96.6852 115.029H110.591V119.587H96.6852C95.2502 119.587 94.0304 119.395 93.0258 119.012C92.05 118.628 91.232 118.097 90.5719 117.418C89.9404 116.71 89.4812 115.899 89.1942 114.984C88.9072 114.04 88.7637 113.007 88.7637 111.886V103.92C88.7637 102.828 88.9072 101.811 89.1942 100.866C89.4812 99.9223 89.9404 99.1109 90.5719 98.4323C91.232 97.7242 92.05 97.1784 93.0258 96.7948C94.0304 96.4113 95.2502 96.2195 96.6852 96.2195H104.047ZM93.198 106.443H103.875C105.109 106.443 105.97 106.192 106.458 105.69C106.975 105.189 107.233 104.51 107.233 103.655C107.233 102.769 106.975 102.061 106.458 101.53C105.941 100.999 105.123 100.734 104.004 100.734H96.6852C95.4224 100.734 94.5183 101.043 93.973 101.663C93.4563 102.283 93.198 103.05 93.198 103.964V106.443Z" fill="white"/>
<path d="M119.039 96.3523L125.904 115.043C126.104 115.571 126.473 115.835 127.009 115.835C127.522 115.835 127.89 115.571 128.114 115.043L135.313 96.3523H139.699L131.73 117.005C131.306 118.107 130.703 118.887 129.922 119.346C129.163 119.782 128.192 120 127.009 120C125.892 120 124.921 119.793 124.095 119.38C123.292 118.944 122.678 118.153 122.254 117.005L114.686 96.3523H119.039Z" fill="white"/>
<path d="M147.005 96.3523V119.587H143.054V96.3523H147.005Z" fill="white"/>
<path d="M154.715 119.587H150.362L158.298 98.9339C158.722 97.8324 159.313 97.0637 160.072 96.6277C160.854 96.1687 161.847 95.9392 163.053 95.9392C164.236 95.9392 165.207 96.1687 165.966 96.6277C166.747 97.0637 167.339 97.8324 167.74 98.9339L175.375 119.587H170.989L164.124 100.896C163.923 100.368 163.555 100.104 163.019 100.104C162.483 100.104 162.104 100.368 161.881 100.896L154.715 119.587Z" fill="white"/>
<path d="M69.175 95.3397L69.7861 94.853L69.7861 94.853L69.175 95.3397ZM67.8689 95.3397L67.2578 94.853L67.2578 94.853L67.8689 95.3397ZM78.0411 106.473L77.43 106.96L77.43 106.96L78.0411 106.473ZM78.0411 108.114L78.6523 108.6L78.6523 108.6L78.0411 108.114ZM76.735 108.114L76.1239 108.6L76.1239 108.6L76.735 108.114ZM68.5219 97.7999L69.1331 97.3132C68.9849 97.1271 68.7599 97.0187 68.5219 97.0187C68.284 97.0187 68.059 97.1271 67.9108 97.3132L68.5219 97.7999ZM51.4427 119.247L52.0539 119.734L52.0539 119.734L51.4427 119.247ZM50.1366 119.247L49.5255 119.734L49.5255 119.734L50.1366 119.247ZM41.2705 108.114L40.6594 108.6L40.6594 108.6L41.2705 108.114ZM42.5766 106.473L41.9655 106.96L41.9655 106.96L42.5766 106.473ZM50.7897 116.787L50.1785 117.274C50.3268 117.46 50.5517 117.568 50.7897 117.568C51.0276 117.568 51.2526 117.46 51.4008 117.274L50.7897 116.787ZM42.3676 95.6021L41.7565 96.0888L41.7565 96.0888L42.3676 95.6021ZM41.4795 95.6021L42.0906 96.0888L42.0906 96.0888L41.4795 95.6021ZM50.7897 106.178L50.1785 106.665C50.3268 106.851 50.5517 106.959 50.7897 106.959C51.0276 106.959 51.2526 106.851 51.4008 106.665L50.7897 106.178ZM59.2117 95.6021L58.6006 95.1154L58.6006 95.1154L59.2117 95.6021ZM60.0999 95.6021L59.4887 96.0888L59.4887 96.0888L60.0999 95.6021ZM60.0999 96.7174L59.4887 96.2307L59.4887 96.2307L60.0999 96.7174ZM51.2338 107.851L51.8449 108.338L51.2338 107.851ZM50.3456 107.851L50.9568 107.364L50.9568 107.364L50.3456 107.851ZM41.4795 96.7174L42.0906 96.2307L42.0906 96.2307L41.4795 96.7174ZM76.944 118.985L77.5552 118.498L77.5552 118.498L76.944 118.985ZM77.8322 118.985L77.221 118.498L77.221 118.498L77.8322 118.985ZM68.522 108.409L69.1331 107.922C68.9849 107.736 68.7599 107.628 68.522 107.628C68.284 107.628 68.059 107.736 67.9108 107.922L68.522 108.409ZM60.0999 118.985L60.711 119.472L60.711 119.472L60.0999 118.985ZM59.2117 118.985L59.8229 118.498L59.8229 118.498L59.2117 118.985ZM59.2117 117.87L59.8229 118.356L59.8229 118.356L59.2117 117.87ZM68.0779 106.736L67.4667 106.249L67.4667 106.249L68.0779 106.736ZM68.966 106.736L68.3549 107.222L68.3549 107.222L68.966 106.736ZM77.8322 117.87L78.4433 117.383L78.4433 117.383L77.8322 117.87ZM109.902 98.1225L109.336 98.6607L109.342 98.6673L109.902 98.1225ZM109.945 108.39L110.491 108.949L110.498 108.942L109.945 108.39ZM93.198 110.116V109.335H92.4168V110.116H93.198ZM93.973 114.143L93.3729 114.644L93.3857 114.659L93.3992 114.674L93.973 114.143ZM110.591 115.029H111.372V114.247H110.591V115.029ZM110.591 119.587V120.368H111.372V119.587H110.591ZM93.0258 119.012L92.74 119.739L92.7471 119.741L93.0258 119.012ZM90.5719 117.418L89.9888 117.938L90 117.951L90.0119 117.963L90.5719 117.418ZM89.1942 114.984L88.4467 115.212L88.4488 115.218L89.1942 114.984ZM89.1942 100.866L89.9417 101.094L89.9417 101.094L89.1942 100.866ZM90.5719 98.4323L90.0004 97.8996L89.9999 97.9001L90.5719 98.4323ZM93.0258 96.7948L92.7471 96.065L92.74 96.0677L93.0258 96.7948ZM93.198 106.443H92.4168V107.224H93.198V106.443ZM106.458 105.69L105.914 105.13L105.906 105.138L105.898 105.146L106.458 105.69ZM106.458 101.53L105.898 102.075L105.898 102.075L106.458 101.53ZM93.973 101.663L93.3865 101.147L93.3796 101.155L93.3729 101.163L93.973 101.663ZM119.039 96.3523L119.773 96.083L119.585 95.571H119.039V96.3523ZM125.904 115.043L125.17 115.313L125.173 115.321L125.904 115.043ZM128.114 115.043L128.833 115.348L128.838 115.336L128.843 115.324L128.114 115.043ZM135.313 96.3523V95.571H134.777L134.584 96.0715L135.313 96.3523ZM139.699 96.3523L140.428 96.6335L140.838 95.571H139.699V96.3523ZM131.73 117.005L131.001 116.724L131.001 116.725L131.73 117.005ZM129.922 119.346L130.311 120.023L130.317 120.02L129.922 119.346ZM124.095 119.38L123.723 120.067L123.734 120.073L123.746 120.079L124.095 119.38ZM122.254 117.005L121.52 117.274L121.521 117.276L122.254 117.005ZM114.686 96.3523V95.571H113.568L113.953 96.6211L114.686 96.3523ZM147.005 96.3523H147.786V95.571H147.005V96.3523ZM147.005 119.587V120.368H147.786V119.587H147.005ZM143.054 119.587H142.273V120.368H143.054V119.587ZM143.054 96.3523V95.571H142.273V96.3523H143.054ZM154.715 119.587V120.368H155.252L155.444 119.867L154.715 119.587ZM150.362 119.587L149.633 119.307L149.225 120.368H150.362V119.587ZM158.298 98.9339L157.569 98.6532L157.568 98.6537L158.298 98.9339ZM160.072 96.6277L160.462 97.3051L160.468 97.3013L160.072 96.6277ZM165.966 96.6277L165.562 97.2962L165.573 97.3032L165.585 97.3099L165.966 96.6277ZM167.74 98.9339L167.007 99.2016L167.008 99.2048L167.74 98.9339ZM175.375 119.587V120.368H176.497L176.108 119.316L175.375 119.587ZM170.989 119.587L170.255 119.856L170.443 120.368H170.989V119.587ZM164.124 100.896L164.858 100.627L164.854 100.618L164.124 100.896ZM161.881 100.896L161.161 100.592L161.156 100.604L161.151 100.616L161.881 100.896ZM69.7861 94.853C69.4737 94.4606 69.021 94.2187 68.522 94.2187C68.0229 94.2187 67.5702 94.4606 67.2578 94.853L68.48 95.8264C68.5058 95.7941 68.5244 95.7834 68.5289 95.7811C68.5332 95.7789 68.5302 95.7812 68.522 95.7812C68.5137 95.7812 68.5107 95.7789 68.515 95.7811C68.5195 95.7834 68.5381 95.7941 68.5639 95.8264L69.7861 94.853ZM78.6523 105.987L69.7861 94.853L68.5639 95.8264L77.43 106.96L78.6523 105.987ZM78.6523 108.6C79.2398 107.862 79.2398 106.724 78.6523 105.987L77.43 106.96C77.5639 107.128 77.5639 107.459 77.43 107.627L78.6523 108.6ZM76.1239 108.6C76.4363 108.993 76.8891 109.234 77.3881 109.234C77.8871 109.234 78.3398 108.993 78.6523 108.6L77.43 107.627C77.4043 107.659 77.3856 107.67 77.3811 107.672C77.3769 107.674 77.3798 107.672 77.3881 107.672C77.3963 107.672 77.3993 107.674 77.3951 107.672C77.3905 107.67 77.3719 107.659 77.3462 107.627L76.1239 108.6ZM67.9108 98.2866L76.1239 108.6L77.3462 107.627L69.1331 97.3132L67.9108 98.2866ZM49.5255 119.734C49.838 120.126 50.2907 120.368 50.7897 120.368C51.2887 120.368 51.7414 120.126 52.0539 119.734L50.8316 118.761C50.8059 118.793 50.7873 118.804 50.7827 118.806C50.7785 118.808 50.7814 118.806 50.7897 118.806C50.7979 118.806 50.8009 118.808 50.7967 118.806C50.7921 118.804 50.7735 118.793 50.7478 118.761L49.5255 119.734ZM40.6594 108.6L49.5255 119.734L50.7478 118.761L41.8816 107.627L40.6594 108.6ZM40.6594 105.987C40.0719 106.724 40.0719 107.862 40.6594 108.6L41.8816 107.627C41.7478 107.459 41.7478 107.128 41.8816 106.96L40.6594 105.987ZM43.1878 105.987C42.8753 105.594 42.4226 105.352 41.9236 105.352C41.4246 105.352 40.9718 105.594 40.6594 105.987L41.8816 106.96C41.9074 106.928 41.926 106.917 41.9305 106.915C41.9348 106.913 41.9318 106.915 41.9236 106.915C41.9153 106.915 41.9123 106.913 41.9166 106.915C41.9211 106.917 41.9397 106.928 41.9655 106.96L43.1878 105.987ZM51.4008 116.3L43.1878 105.987L41.9655 106.96L50.1785 117.274L51.4008 116.3ZM52.0539 119.734L69.1331 98.2866L67.9108 97.3132L50.8316 118.761L52.0539 119.734ZM67.2578 94.853L50.1785 116.3L51.4008 117.274L68.48 95.8264L67.2578 94.853ZM42.9788 95.1154C42.724 94.7955 42.3469 94.5899 41.9236 94.5899C41.5002 94.5899 41.1231 94.7955 40.8683 95.1154L42.0906 96.0888C42.0811 96.1007 42.0255 96.1524 41.9236 96.1524C41.8216 96.1524 41.766 96.1007 41.7565 96.0888L42.9788 95.1154ZM58.6006 95.1154L50.1785 105.691L51.4008 106.665L59.8229 96.0888L58.6006 95.1154ZM60.711 95.1154C60.4563 94.7955 60.0792 94.5899 59.6558 94.5899C59.2325 94.5899 58.8554 94.7955 58.6006 95.1154L59.8229 96.0888C59.8134 96.1007 59.7577 96.1524 59.6558 96.1524C59.5539 96.1524 59.4982 96.1007 59.4887 96.0888L60.711 95.1154ZM60.711 97.2041C61.1831 96.6113 61.1831 95.7082 60.711 95.1154L59.4887 96.0888C59.4861 96.0854 59.4899 96.089 59.4944 96.1031C59.499 96.1173 59.5026 96.1369 59.5026 96.1598C59.5026 96.1826 59.499 96.2023 59.4944 96.2164C59.4899 96.2305 59.4861 96.2341 59.4887 96.2307L60.711 97.2041ZM51.8449 108.338L60.711 97.2041L59.4887 96.2307L50.6226 107.364L51.8449 108.338ZM49.7345 108.338C49.9892 108.658 50.3663 108.863 50.7897 108.863C51.2131 108.863 51.5902 108.658 51.8449 108.338L50.6226 107.364C50.6321 107.353 50.6878 107.301 50.7897 107.301C50.8916 107.301 50.9473 107.353 50.9568 107.364L49.7345 108.338ZM40.8683 95.1154C40.3963 95.7082 40.3963 96.6113 40.8683 97.2041L42.0906 96.2307C42.0933 96.2341 42.0895 96.2305 42.085 96.2164C42.0804 96.2023 42.0768 96.1826 42.0768 96.1598C42.0768 96.1369 42.0804 96.1173 42.085 96.1031C42.0895 96.089 42.0933 96.0854 42.0906 96.0888L40.8683 95.1154ZM51.4008 105.691L42.9788 95.1154L41.7565 96.0888L50.1785 106.665L51.4008 105.691ZM40.8683 97.2041L49.7345 108.338L50.9568 107.364L42.0906 96.2307L40.8683 97.2041ZM76.3329 119.472C76.5876 119.791 76.9647 119.997 77.3881 119.997C77.8115 119.997 78.1886 119.791 78.4433 119.472L77.221 118.498C77.2305 118.486 77.2862 118.435 77.3881 118.435C77.49 118.435 77.5457 118.486 77.5552 118.498L76.3329 119.472ZM67.9108 108.895L76.3329 119.472L77.5552 118.498L69.1331 107.922L67.9108 108.895ZM60.711 119.472L69.1331 108.895L67.9108 107.922L59.4888 118.498L60.711 119.472ZM58.6006 119.472C58.8554 119.791 59.2325 119.997 59.6558 119.997C60.0792 119.997 60.4563 119.791 60.711 119.472L59.4888 118.498C59.4983 118.486 59.5539 118.435 59.6558 118.435C59.7577 118.435 59.8134 118.486 59.8229 118.498L58.6006 119.472ZM58.6006 117.383C58.1285 117.976 58.1285 118.879 58.6006 119.472L59.8229 118.498C59.8255 118.501 59.8218 118.498 59.8172 118.484C59.8127 118.47 59.8091 118.45 59.8091 118.427C59.8091 118.404 59.8127 118.385 59.8172 118.37C59.8218 118.356 59.8255 118.353 59.8229 118.356L58.6006 117.383ZM67.4667 106.249L58.6006 117.383L59.8229 118.356L68.689 107.222L67.4667 106.249ZM69.5772 106.249C69.3224 105.929 68.9453 105.724 68.522 105.724C68.0986 105.724 67.7215 105.929 67.4667 106.249L68.689 107.222C68.6795 107.234 68.6239 107.286 68.522 107.286C68.42 107.286 68.3644 107.234 68.3549 107.222L69.5772 106.249ZM78.4433 117.383L69.5772 106.249L68.3549 107.222L77.221 118.356L78.4433 117.383ZM78.4433 119.472C78.9154 118.879 78.9154 117.976 78.4433 117.383L77.221 118.356C77.2184 118.353 77.2221 118.356 77.2267 118.37C77.2313 118.385 77.2349 118.404 77.2349 118.427C77.2349 118.45 77.2313 118.47 77.2267 118.484C77.2221 118.498 77.2184 118.501 77.221 118.498L78.4433 119.472ZM104.047 97.0008C106.645 97.0008 108.341 97.6141 109.336 98.6607L110.469 97.5844C109.052 96.0936 106.845 95.4383 104.047 95.4383V97.0008ZM109.342 98.6673C110.366 99.7193 110.929 101.255 110.929 103.389H112.492C112.492 100.98 111.85 99.0042 110.462 97.5778L109.342 98.6673ZM110.929 103.389C110.929 105.399 110.383 106.844 109.392 107.838L110.498 108.942C111.86 107.576 112.492 105.687 112.492 103.389H110.929ZM109.399 107.831C108.441 108.768 106.716 109.335 104.004 109.335V110.897C106.86 110.897 109.096 110.313 110.491 108.949L109.399 107.831ZM104.004 109.335H93.198V110.897H104.004V109.335ZM92.4168 110.116V111.798H93.9793V110.116H92.4168ZM92.4168 111.798C92.4168 112.892 92.7198 113.86 93.3729 114.644L94.573 113.643C94.1928 113.187 93.9793 112.592 93.9793 111.798H92.4168ZM93.3992 114.674C94.1588 115.496 95.3268 115.81 96.6852 115.81V114.247C95.518 114.247 94.8777 113.971 94.5467 113.613L93.3992 114.674ZM96.6852 115.81H110.591V114.247H96.6852V115.81ZM109.81 115.029V119.587H111.372V115.029H109.81ZM110.591 118.806H96.6852V120.368H110.591V118.806ZM96.6852 118.806C95.3154 118.806 94.1958 118.622 93.3045 118.282L92.7471 119.741C93.8649 120.168 95.1849 120.368 96.6852 120.368V118.806ZM93.3116 118.285C92.4279 117.937 91.7066 117.464 91.1319 116.874L90.0119 117.963C90.7574 118.729 91.6721 119.319 92.74 119.739L93.3116 118.285ZM91.155 116.898C90.5981 116.274 90.1938 115.56 89.9396 114.75L88.4488 115.218C88.7686 116.237 89.2828 117.147 89.9888 117.938L91.155 116.898ZM89.9417 114.757C89.6799 113.896 89.5449 112.941 89.5449 111.886H87.9824C87.9824 113.074 88.1345 114.184 88.4467 115.211L89.9417 114.757ZM89.5449 111.886V103.92H87.9824V111.886H89.5449ZM89.5449 103.92C89.5449 102.897 89.6793 101.957 89.9417 101.094L88.4467 100.639C88.1351 101.664 87.9824 102.76 87.9824 103.92H89.5449ZM89.9417 101.094C90.1964 100.256 90.5985 99.5506 91.1438 98.9645L89.9999 97.9001C89.2824 98.6713 88.766 99.5889 88.4467 100.639L89.9417 101.094ZM91.1433 98.9651C91.7175 98.3492 92.4351 97.8664 93.3116 97.5219L92.74 96.0677C91.6648 96.4904 90.7465 97.0993 90.0004 97.8996L91.1433 98.9651ZM93.3045 97.5247C94.1958 97.1844 95.3154 97.0008 96.6852 97.0008V95.4383C95.1849 95.4383 93.8649 95.6382 92.7471 96.065L93.3045 97.5247ZM96.6852 97.0008H104.047V95.4383H96.6852V97.0008ZM93.198 107.224H103.875V105.662H93.198V107.224ZM103.875 107.224C105.171 107.224 106.304 106.969 107.018 106.235L105.898 105.146C105.636 105.415 105.047 105.662 103.875 105.662V107.224ZM107.002 106.251C107.699 105.575 108.014 104.679 108.014 103.655H106.452C106.452 104.342 106.251 104.803 105.914 105.13L107.002 106.251ZM108.014 103.655C108.014 102.608 107.703 101.69 107.018 100.986L105.898 102.075C106.246 102.433 106.452 102.931 106.452 103.655H108.014ZM107.018 100.986C106.294 100.241 105.228 99.9524 104.004 99.9524V101.515C105.019 101.515 105.589 101.758 105.898 102.075L107.018 100.986ZM104.004 99.9524H96.6852V101.515H104.004V99.9524ZM96.6852 99.9524C95.3169 99.9524 94.1439 100.286 93.3865 101.147L94.5594 102.179C94.8927 101.801 95.5278 101.515 96.6852 101.515V99.9524ZM93.3729 101.163C92.7236 101.941 92.4168 102.893 92.4168 103.964H93.9793C93.9793 103.207 94.1891 102.624 94.573 102.163L93.3729 101.163ZM92.4168 103.964V106.443H93.9793V103.964H92.4168ZM118.306 96.6216L125.17 115.313L126.637 114.774L119.773 96.083L118.306 96.6216ZM125.173 115.321C125.315 115.693 125.539 116.031 125.875 116.272C126.215 116.516 126.608 116.616 127.009 116.616V115.054C126.873 115.054 126.814 115.022 126.786 115.002C126.754 114.979 126.693 114.921 126.634 114.765L125.173 115.321ZM127.009 116.616C127.406 116.616 127.791 116.512 128.125 116.272C128.453 116.037 128.68 115.709 128.833 115.348L127.394 114.739C127.324 114.905 127.255 114.973 127.215 115.002C127.181 115.026 127.125 115.054 127.009 115.054V116.616ZM128.843 115.324L136.042 96.6331L134.584 96.0715L127.385 114.762L128.843 115.324ZM135.313 97.1335H139.699V95.571H135.313V97.1335ZM138.97 96.071L131.001 116.724L132.459 117.287L140.428 96.6335L138.97 96.071ZM131.001 116.725C130.621 117.711 130.114 118.327 129.526 118.672L130.317 120.02C131.292 119.447 131.991 118.502 132.459 117.286L131.001 116.725ZM129.533 118.669C128.926 119.017 128.101 119.219 127.009 119.219V120.781C128.282 120.781 129.399 120.547 130.311 120.023L129.533 118.669ZM127.009 119.219C125.989 119.219 125.142 119.03 124.445 118.682L123.746 120.079C124.701 120.557 125.796 120.781 127.009 120.781V119.219ZM124.468 118.694C123.88 118.375 123.367 117.765 122.987 116.734L121.521 117.276C121.988 118.541 122.703 119.514 123.723 120.067L124.468 118.694ZM122.987 116.737L115.42 96.0835L113.953 96.6211L121.52 117.274L122.987 116.737ZM114.686 97.1335H119.039V95.571H114.686V97.1335ZM146.224 96.3523V119.587H147.786V96.3523H146.224ZM147.005 118.806H143.054V120.368H147.005V118.806ZM143.835 119.587V96.3523H142.273V119.587H143.835ZM143.054 97.1335H147.005V95.571H143.054V97.1335ZM154.715 118.806H150.362V120.368H154.715V118.806ZM151.091 119.867L159.027 99.2141L157.568 98.6537L149.633 119.307L151.091 119.867ZM159.027 99.2146C159.409 98.2222 159.905 97.625 160.462 97.3051L159.683 95.9502C158.722 96.5023 158.035 97.4426 157.569 98.6532L159.027 99.2146ZM160.468 97.3013C161.096 96.9324 161.942 96.7205 163.053 96.7205V95.158C161.753 95.158 160.611 95.405 159.677 95.954L160.468 97.3013ZM163.053 96.7205C164.139 96.7205 164.959 96.9317 165.562 97.2962L166.37 95.9591C165.455 95.4057 164.332 95.158 163.053 95.158V96.7205ZM165.585 97.3099C166.158 97.6293 166.649 98.2206 167.007 99.2016L168.474 98.6662C168.029 97.4442 167.337 96.498 166.346 95.9454L165.585 97.3099ZM167.008 99.2048L174.642 119.858L176.108 119.316L168.473 98.663L167.008 99.2048ZM175.375 118.806H170.989V120.368H175.375V118.806ZM171.722 119.318L164.857 100.627L163.391 101.165L170.255 119.856L171.722 119.318ZM164.854 100.618C164.713 100.246 164.489 99.9083 164.152 99.6671C163.812 99.4237 163.42 99.323 163.019 99.323V100.885C163.154 100.885 163.214 100.917 163.242 100.937C163.274 100.96 163.335 101.018 163.394 101.174L164.854 100.618ZM163.019 99.323C162.618 99.323 162.227 99.4239 161.887 99.6608C161.55 99.8951 161.316 100.224 161.161 100.592L162.6 101.2C162.668 101.04 162.736 100.973 162.779 100.944C162.818 100.917 162.885 100.885 163.019 100.885V99.323ZM161.151 100.616L153.985 119.307L155.444 119.867L162.61 101.176L161.151 100.616Z" fill="white" mask="url(#path-2-inside-1_174_7)"/>
</svg>
